:version 1.10
:name ASF
:units
  mass 1
  length 1
  angle deg
:documentation
  ASF file generated by Kaydara
:root
  axis xyz
  order  tx ty tz rx ry rz
  position 0 0 0
  orientation 0 0 0
:bonedata
  begin
    id 1
    name LeftUpLegDummy
    direction 1 -2.30186e-007 -8.31532e-007
    length 2.93387
    axis 0 0 0 xyz
  end
  begin
    id 2
    name LeftUpLeg
    direction -1.82929e-007 -1 -1.48925e-009
    length 17.3336
    axis -3.48766 0.00143442 -0.000521554 xyz
    dof rx ry rz
  end
  begin
    id 3
    name LeftLeg
    direction -1.82929e-007 -1 -5.23717e-011
    length 14.9995
    axis 3.68178 -0.00654042 -0.000282425 xyz
    dof rx ry rz
  end
  begin
    id 4
    name LeftFoot
    direction 8.31532e-007 -4.54534e-011 1
    length 6.74421
    axis 1.87234e-006 4.66016e-005 -5.96866e-006 xyz
    dof rx ry rz
  end
  begin
    id 5
    name LeftToes
    direction 0.00818058 -0.00485161 0.999955
    length 3.85048
    axis 1.06247e-005 4.65869e-005 -5.96999e-006 xyz
    dof rx ry rz
  end
  begin
    id 6
    name SpineDummy
    direction -5.8607e-008 0.943407 -0.331637
    length 5.93572
    axis 0 0 0 xyz
  end
  begin
    id 7
    name Spine
    direction -1.04988e-007 0.999988 0.00495137
    length 10.1015
    axis -0.001389 0.000121417 6.61666e-006 xyz
    dof rx ry rz
  end
  begin
    id 8
    name Spine1
    direction 0 0 0
    length 0
    axis -0.001389 0.00012144 6.56766e-006 xyz
    dof rx ry rz
  end
  begin
    id 9
    name RightShoulderDummy
    direction -0.98348 0.17941 -0.0240696
    length 3.59882
    axis -0.001389 0.00012144 6.56766e-006 xyz
  end
  begin
    id 10
    name RightShoulder
    direction -0.978693 0.204882 0.0135597
    length 2.70001
    axis 0.215806 0.000203631 -0.00679732 xyz
    dof rx ry rz
  end
  begin
    id 11
    name RightArm
    direction -1 3.85509e-006 8.31394e-007
    length 10.2459
    axis -23.2009 -0.134239 -0.964098 xyz
    dof rx ry rz
  end
  begin
    id 12
    name RightForeArm
    direction -1 3.85569e-006 8.3129e-007
    length 8.16799
    axis -9.92322 0.0658061 0.17887 xyz
    dof rx ry rz
  end
  begin
    id 13
    name RightHand
    direction -0.992843 -0.0414604 0.112003
    length 5.28593
    axis -0.00960638 0.00330669 -0.185225 xyz
    dof rx ry rz
  end
  begin
    id 14
    name LeftShoulder1Dummy
    direction 0.983523 0.179172 -0.0240748
    length 3.59866
    axis -0.001389 0.00012144 6.56766e-006 xyz
  end
  begin
    id 15
    name LeftShoulder1
    direction 0.978627 0.205195 0.0135605
    length 2.70019
    axis -0.001389 0.00012144 6.57583e-006 xyz
    dof rx ry rz
  end
  begin
    id 16
    name LeftArm
    direction 1 3.51895e-006 -8.60188e-007
    length 10.2459
    axis -23.1894 0.134785 0.967513 xyz
    dof rx ry rz
  end
  begin
    id 17
    name LeftForeArm
    direction 1 3.51921e-006 -7.32029e-007
    length 8.16799
    axis -9.91835 -0.0656957 -0.177789 xyz
    dof rx ry rz
  end
  begin
    id 18
    name LeftHand
    direction 0.992938 -0.0411636 0.11126
    length 5.32135
    axis -0.00960237 -0.00340661 0.185177 xyz
    dof rx ry rz
  end
  begin
    id 19
    name HEadDummy
    direction 1.01974e-006 0.999861 -0.016675
    length 2.99946
    axis -0.001389 0.00012144 6.56766e-006 xyz
  end
  begin
    id 20
    name HEad
    direction -0.0222689 0.980941 0.193023
    length 5.12695
    axis -0.001389 0.00012144 6.56766e-006 xyz
    dof rx ry rz
  end
  begin
    id 21
    name RightUpLegDummy
    direction -1 2.30186e-007 8.31532e-007
    length 2.93387
    axis 0 0 0 xyz
  end
  begin
    id 22
    name RightUpLeg
    direction -1.82966e-007 -1 1.56832e-007
    length 17.3336
    axis -3.4909 -0.000906625 0.00028951 xyz
    dof rx ry rz
  end
  begin
    id 23
    name RightLeg
    direction -1.82786e-007 -1 -1.80317e-007
    length 14.9995
    axis 3.68513 0.0193739 -0.131021 xyz
    dof rx ry rz
  end
  begin
    id 24
    name RightFoot
    direction 8.31721e-007 -4.63324e-011 1
    length 6.74421
    axis 4.81691e-005 -0.120479 -0.188785 xyz
    dof rx ry rz
  end
  begin
    id 25
    name RightToes
    direction 0.00124746 -0.014064 0.9999
    length 3.85082
    axis 0.000481921 0.542163 -0.142575 xyz
    dof rx ry rz
  end
:hierarchy
  begin
    root LeftUpLegDummy SpineDummy RightUpLegDummy
    LeftUpLegDummy LeftUpLeg
    LeftUpLeg LeftLeg
    LeftLeg LeftFoot
    LeftFoot LeftToes
    SpineDummy Spine
    Spine Spine1
    Spine1 RightShoulderDummy LeftShoulder1Dummy HEadDummy
    RightShoulderDummy RightShoulder
    RightShoulder RightArm
    RightArm RightForeArm
    RightForeArm RightHand
    LeftShoulder1Dummy LeftShoulder1
    LeftShoulder1 LeftArm
    LeftArm LeftForeArm
    LeftForeArm LeftHand
    HEadDummy HEad
    RightUpLegDummy RightUpLeg
    RightUpLeg RightLeg
    RightLeg RightFoot
    RightFoot RightToes
  end

:SAMPLES-PER-SECOND 30
:FULLY-SPECIFIED
:DEGREES
33
root  3.36269 33.7406 -4.1202 4.98979 26.5161 4.69411
LeftUpLeg  -14.6761 14.3056 -4.92691
LeftLeg  15.0254 6.55293 1.30976
LeftFoot  3.00217 -0.0109047 0.471756
LeftToes  -12.7171 2.48695e-006 -1.03773e-007
Spine  5.8359 2.18139 -4.29828
Spine1  10.5801 5.23422 -8.52994
RightShoulder  0.0920963 1.97346 -0.721793
RightArm  3.42018 11.4526 87.4716
RightForeArm  140.929 51.7517 166.726
RightHand  0.630268 -6.72176 -10.3213
LeftShoulder1  0.108247 -2.27353 -9.27717
LeftArm  -19.1932 -0.490864 -62.4179
LeftForeArm  34.7486 -14.4887 -2.60228
LeftHand  0.14192 3.52161 4.23576
HEad  20.4672 -13.1899 -3.39016
RightUpLeg  -15.2107 -5.55154 -12.4336
RightLeg  45.2369 0.126794 0.0789309
RightFoot  -1.68296 -0.00186822 0.250457
RightToes  -48.2703 -0.287687 -0.356919
34
root  3.68274 33.7664 -4.02396 4.43572 26.5442 4.2826
LeftUpLeg  -13.9614 13.9857 -4.77832
LeftLeg  15.2501 6.89606 1.40613
LeftFoot  2.27861 -0.00527229 0.398037
LeftToes  -12.0225 2.48695e-006 -1.03773e-007
Spine  6.02664 2.07782 -4.37121
Spine1  10.9144 4.98397 -8.55747
RightShoulder  0.0969106 1.94519 -0.613933
RightArm  3.85167 11.699 87.6374
RightForeArm  140.95 52.0776 166.57
RightHand  0.653222 -6.77381 -10.6235
LeftShoulder1  0.12404 -2.38699 -9.15931
LeftArm  -18.9617 -2.95027 -62.2586
LeftForeArm  34.5485 -15.1198 -2.72124
LeftHand  0.131818 3.38612 4.07908
HEad  19.8247 -12.9534 -3.13877
RightUpLeg  -17.5088 -7.69808 -11.786
RightLeg  50.2168 -1.57179 -1.70424
RightFoot  0.503607 0.000579533 0.245336
RightToes  -42.9468 -0.242441 -0.331156
35
root  3.95221 33.8353 -3.91635 3.84794 26.7364 3.44616
LeftUpLeg  -13.206 12.9817 -4.21171
LeftLeg  14.9792 7.78561 1.54846
LeftFoot  2.03458 -0.00525007 0.394301
LeftToes  -11.317 2.48695e-006 -1.03773e-007
Spine  6.10191 1.96448 -4.25157
Spine1  11.0662 4.6796 -8.22578
RightShoulder  0.0991561 1.80355 -0.612859
RightArm  4.38128 11.7875 87.9112
RightForeArm  140.845 52.3112 166.457
RightHand  0.662062 -6.69184 -10.9072
LeftShoulder1  0.130188 -2.19831 -9.1037
LeftArm  -18.6263 -5.09188 -62.3324
LeftForeArm  34.5102 -15.914 -2.87185
LeftHand  0.124019 3.31361 3.9075
HEad  19.0943 -12.7142 -2.89926
RightUpLeg  -19.2873 -9.77288 -10.6192
RightLeg  52.8196 -2.84457 -3.33769
RightFoot  1.81482 0.0113358 0.117928
RightToes  -37.8284 -0.201372 -0.30253
36
root  4.18484 33.9164 -3.80421 3.36195 27.0462 2.50561
LeftUpLeg  -12.6669 11.9931 -3.55456
LeftLeg  14.7692 8.47916 1.65339
LeftFoot  1.85142 -0.00576294 0.384982
LeftToes  -10.6951 2.48695e-006 -1.03773e-007
Spine  6.06845 1.86242 -4.07401
Spine1  11.0156 4.40595 -7.84097
RightShoulder  0.10045 1.86917 -0.74309
RightArm  4.51925 11.8491 88.1775
RightForeArm  140.721 52.4095 166.409
RightHand  0.683852 -6.74729 -11.1806
LeftShoulder1  0.131149 -2.25984 -8.84269
LeftArm  -18.344 -6.39543 -62.4261
LeftForeArm  34.0987 -17.0503 -3.08982
LeftHand  0.115576 3.09793 3.89342
HEad  18.3661 -12.5871 -2.67262
RightUpLeg  -20.5184 -11.5179 -9.46568
RightLeg  53.007 -2.53026 -2.99606
RightFoot  1.04915 0.0106678 0.173096
RightToes  -37.994 -0.20266 -0.303512
37
root  4.39263 33.9908 -3.68172 2.99699 27.4598 1.58253
LeftUpLeg  -12.2334 11.3972 -2.92752
LeftLeg  14.4576 8.8052 1.6671
LeftFoot  1.68575 -0.00600526 0.360869
LeftToes  -10.1401 2.48695e-006 -1.03773e-007
Spine  5.96525 1.77922 -3.91055
Spine1  10.834 4.1821 -7.52166
RightShoulder  0.101808 1.87612 -0.850161
RightArm  4.45906 11.9874 88.4195
RightForeArm  140.701 52.4691 166.38
RightHand  0.688882 -6.69394 -11.3572
LeftShoulder1  0.129729 -2.30614 -8.58889
LeftArm  -17.3087 -7.27128 -62.3607
LeftForeArm  33.1125 -18.2784 -3.32895
LeftHand  0.111184 2.84053 4.10216
HEad  17.5251 -12.6146 -2.31126
RightUpLeg  -21.2331 -12.8153 -8.52254
RightLeg  50.8378 -0.810801 -0.922921
RightFoot  0.874657 0.0110604 0.210306
RightToes  -39.0288 -0.210772 -0.309571
38
root  4.58355 34.0287 -3.56333 2.85096 27.7705 1.19675
LeftUpLeg  -12.0354 11.5726 -2.77949
LeftLeg  14.6126 8.4535 1.62457
LeftFoot  1.31956 -0.00368164 0.289596
LeftToes  -9.66637 2.48695e-006 -1.03773e-007
Spine  5.90635 1.73715 -3.92853
Spine1  10.7003 4.07519 -7.5687
RightShoulder  0.103162 1.91695 -0.999019
RightArm  4.3345 12.4987 88.6782
RightForeArm  140.744 52.7263 166.252
RightHand  0.691351 -6.67468 -11.4327
LeftShoulder1  0.128217 -2.49566 -8.34898
LeftArm  -16.5548 -7.83422 -62.0636
LeftForeArm  32.5023 -19.4174 -3.55363
LeftHand  0.097721 2.50763 4.08134
HEad  16.3939 -12.492 -1.88823
RightUpLeg  -21.4558 -13.4233 -8.29078
RightLeg  46.7294 1.31016 1.18633
RightFoot  2.42129 0.00800072 0.292908
RightToes  -41.6695 -0.231955 -0.324357
39
root  4.74958 34.056 -3.44173 2.75332 28.0958 0.798681
LeftUpLeg  -11.8826 11.4187 -2.57438
LeftLeg  14.7528 8.35929 1.6277
LeftFoot  0.916201 -0.00176441 0.220666
LeftToes  -9.32349 2.48695e-006 -1.03773e-007
Spine  5.92049 1.72385 -3.97709
Spine1  10.7223 4.02601 -7.6681
RightShoulder  0.104446 1.95075 -1.0927
RightArm  3.93126 13.093 88.8937
RightForeArm  141.093 52.9475 166.14
RightHand  0.672415 -6.58806 -11.2618
LeftShoulder1  0.128898 -2.61103 -8.18243
LeftArm  -15.4868 -8.48822 -61.6363
LeftForeArm  31.9138 -20.3465 -3.73941
LeftHand  0.0875966 2.38468 3.82569
HEad  14.9153 -12.5454 -1.26004
RightUpLeg  -20.9972 -13.3575 -8.25668
RightLeg  40.5104 3.67918 2.72802
RightFoot  5.86183 -0.0149205 0.66889
RightToes  -43.7211 -0.248871 -0.335163
40
root  4.89164 34.0545 -3.31145 2.86825 28.3272 0.719111
LeftUpLeg  -11.8783 11.2205 -2.61735
LeftLeg  15.0808 8.39712 1.68472
LeftFoot  0.337363 -0.000382224 0.129821
LeftToes  -8.78282 2.48695e-006 -1.03773e-007
Spine  5.93283 1.78218 -4.12877
Spine1  10.7329 4.11545 -7.92502
RightShoulder  0.105615 1.94762 -1.30052
RightArm  3.61419 13.6073 89.371
RightForeArm  141.781 53.2292 165.995
RightHand  0.651115 -6.34335 -11.3278
LeftShoulder1  0.134302 -2.84356 -8.13488
LeftArm  -14.9136 -9.07046 -61.1704
LeftForeArm  32.1018 -20.6485 -3.80002
LeftHand  0.0776824 2.14632 3.76301
HEad  13.3785 -12.7376 -0.804051
RightUpLeg  -19.8985 -12.5061 -8.67868
RightLeg  33.1202 4.76191 2.67047
RightFoot  6.64057 -0.0257982 0.822141
RightToes  -42.0474 -0.235042 -0.328036
41
root  5.02297 34.0516 -3.1769 2.97898 28.4382 0.634217
LeftUpLeg  -11.8635 10.7098 -2.59354
LeftLeg  15.4505 8.74592 1.81268
LeftFoot  -0.166075 7.15603e-005 0.0493663
LeftToes  -8.71153 2.48695e-006 -1.03773e-007
Spine  5.90611 1.92171 -4.31974
Spine1  10.6613 4.35202 -8.21854
RightShoulder  0.106586 1.91779 -1.38833
RightArm  3.4454 13.8413 89.7346
RightForeArm  142.629 53.3788 165.916
RightHand  0.641058 -6.11685 -11.5723
LeftShoulder1  0.142946 -2.95001 -8.17747
LeftArm  -14.3163 -9.46783 -60.7686
LeftForeArm  32.5276 -20.4885 -3.7675
LeftHand  0.0760918 2.10061 3.74822
HEad  12.2599 -13.0432 -0.395759
RightUpLeg  -18.5404 -11.155 -9.24964
RightLeg  24.9221 4.87875 1.88926
RightFoot  9.45011 -0.0545563 1.03751
RightToes  -41.1519 -0.22775 -0.321536
42
root  5.13234 34.0524 -3.02691 3.11811 28.485 0.405926
LeftUpLeg  -11.8451 10.5146 -2.40587
LeftLeg  15.6226 8.80945 1.85322
LeftFoot  -0.667554 -0.0002064 -0.0354389
LeftToes  -8.63888 2.48695e-006 -1.03773e-007
Spine  5.78143 2.12934 -4.46966
Spine1  10.4118 4.71021 -8.42108
RightShoulder  0.107293 1.79978 -1.27273
RightArm  3.57242 13.8888 89.8167
RightForeArm  143.174 53.3546 165.927
RightHand  0.637527 -6.01153 -11.7137
LeftShoulder1  0.150243 -2.95998 -8.29349
LeftArm  -14.0432 -9.4283 -60.5458
LeftForeArm  33.0299 -20.0362 -3.67645
LeftHand  0.0775419 2.22729 3.72257
HEad  11.4773 -13.2603 0.000674102
RightUpLeg  -17.1897 -8.88821 -9.74531
RightLeg  16.5273 2.96626 0.676157
RightFoot  14.2583 -0.0668175 0.911726
RightToes  -43.659 -0.248353 -0.334845
43
root  5.22577 34.0616 -2.87567 3.36176 28.453 0.179283
LeftUpLeg  -11.7594 10.4011 -2.21898
LeftLeg  15.4095 8.898 1.83735
LeftFoot  -0.967183 -0.000745123 -0.0882885
LeftToes  -8.78386 2.48695e-006 -1.03773e-007
Spine  5.58144 2.34521 -4.60043
Spine1  10.0273 5.09059 -8.6053
RightShoulder  0.107684 1.68233 -1.19367
RightArm  3.89044 13.9077 89.893
RightForeArm  143.699 53.3272 165.939
RightHand  0.624339 -5.88131 -11.7258
LeftShoulder1  0.153558 -2.83413 -8.45824
LeftArm  -14.4984 -8.92791 -60.4499
LeftForeArm  33.5281 -19.2574 -3.52118
LeftHand  0.0852397 2.21726 4.02006
HEad  10.8866 -13.3084 0.396946
RightUpLeg  -16.3334 -6.69034 -10.2077
RightLeg  9.7516 0.813349 0.0878387
RightFoot  16.9115 -0.00213672 0.391906
RightToes  -45.1609 -0.260968 -0.342381
